<?xml version="1.0" standalone="no"?>
<!DOCTYPE svg PUBLIC "-//W3C//DTD SVG 20010904//EN"
 "http://www.w3.org/TR/2001/REC-SVG-20010904/DTD/svg10.dtd">
<svg version="1.0" xmlns="http://www.w3.org/2000/svg"
 width="500.000000pt" height="500.000000pt" viewBox="0 0 500.000000 500.000000"
 preserveAspectRatio="xMidYMid meet">

<g transform="translate(0.000000,500.000000) scale(0.100000,-0.100000)"
fill="#000000" stroke="none">
<path d="M0 2500 l0 -2500 2500 0 2500 0 0 2500 0 2500 -2500 0 -2500 0 0
-2500z m3260 1320 l0 -140 -295 0 -295 0 0 -1110 0 -1110 295 0 295 0 0 -145
0 -145 -760 0 -760 0 0 145 0 145 295 0 295 0 0 1110 0 1110 -295 0 -295 0 0
140 0 140 760 0 760 0 0 -140z"/>
</g>
</svg>
